name rise44.9368peak50.754fall52.0217.mot
datacolumns 19
datarows 20
range 11.81329600000000 11.84496100000000
endheader
time	ground_force1_vx	ground_force1_vy	ground_force1_vz	ground_force1_px	ground_force1_py	ground_force1_pz	ground_force2_vx	ground_force2_vy	ground_force2_vz	ground_force2_px	ground_force2_py	ground_force2_pz	ground_torque1_x	ground_torque1_y	ground_torque1_z	ground_torque2_x	ground_torque2_y	ground_torque2_z	
11.81329600000000	-50.09226300000000	830.44451300000003	65.29975200000000	0.15202700000000	0.00000000000000	0.11212800000000	-4.84881400000000	21.34292600000000	3.37399600000000	0.00000000000000	0.00000000000000	0.00000000000000	0.00000000000000	29.69118600000000	0.00000000000000	0.00000000000000	1.22378400000000	0.00000000000000	
11.81496300000000	-50.63761700000000	829.90032499999995	65.37492399999999	0.15129100000000	0.00000000000000	0.11205000000000	-5.89987600000000	27.10375600000000	4.18850600000000	0.37737900000000	0.00000000000000	-0.08880000000000	0.00000000000000	29.64824900000000	0.00000000000000	0.00000000000000	2.58430500000000	0.00000000000000	
11.81663000000000	-51.19884500000000	829.22818500000005	65.42780100000000	0.15055800000000	0.00000000000000	0.11196800000000	-6.93603400000000	33.19999500000000	5.02090100000000	0.38333500000000	0.00000000000000	-0.08901700000000	0.00000000000000	29.60280000000000	0.00000000000000	0.00000000000000	3.14816800000000	0.00000000000000	
11.81829800000000	-51.77640200000000	828.42538500000001	65.45769199999999	0.14982600000000	0.00000000000000	0.11188400000000	-7.92039600000000	39.50299000000000	5.84740000000000	0.38865200000000	0.00000000000000	-0.08922500000000	0.00000000000000	29.55492000000000	0.00000000000000	0.00000000000000	3.72142200000000	0.00000000000000	
11.81995600000000	-52.37068100000000	827.48928500000000	65.46393200000000	0.14909700000000	0.00000000000000	0.11179500000000	-8.81933300000000	45.88809900000000	6.64563300000000	0.39342400000000	0.00000000000000	-0.08942400000000	0.00000000000000	29.50469200000000	0.00000000000000	0.00000000000000	4.28941700000000	0.00000000000000	
11.82163000000000	-52.98200400000000	826.41731400000003	65.44588800000000	0.14836900000000	0.00000000000000	0.11170300000000	-9.60468700000000	52.24393600000000	7.39615300000000	0.39773000000000	0.00000000000000	-0.08961600000000	0.00000000000000	29.45219100000000	0.00000000000000	0.00000000000000	4.83900300000000	0.00000000000000	
11.82329400000000	-53.61062300000000	825.20696999999996	65.40296200000000	0.14764200000000	0.00000000000000	0.11160800000000	-10.25528700000000	58.47943800000000	8.08353600000000	0.40163600000000	0.00000000000000	-0.08980200000000	0.00000000000000	29.39748900000000	0.00000000000000	0.00000000000000	5.35933300000000	0.00000000000000	
11.82495500000000	-54.25671500000000	823.85581600000000	65.33458899999999	0.14691700000000	0.00000000000000	0.11150800000000	-10.75768800000000	64.52825600000000	8.69699700000000	0.40519500000000	0.00000000000000	-0.08998400000000	0.00000000000000	29.34065500000000	0.00000000000000	0.00000000000000	5.84236000000000	0.00000000000000	
11.82662700000000	-54.92037500000000	822.36148500000002	65.24024199999999	0.14619400000000	0.00000000000000	0.11140500000000	-11.10616400000000	70.35044400000000	9.23053100000000	0.40845200000000	0.00000000000000	-0.09016100000000	0.00000000000000	29.28175100000000	0.00000000000000	0.00000000000000	6.28302700000000	0.00000000000000	
11.82829200000000	-55.60161900000000	820.72167300000001	65.11943599999999	0.14547100000000	0.00000000000000	0.11129800000000	-11.30207600000000	75.93169200000000	9.68264200000000	0.41144500000000	0.00000000000000	-0.09033500000000	0.00000000000000	29.22083100000000	0.00000000000000	0.00000000000000	6.67918300000000	0.00000000000000	
11.82995500000000	-56.30037500000000	818.93414800000005	64.97172600000000	0.14475100000000	0.00000000000000	0.11118700000000	-11.35275900000000	81.28058400000000	10.05574400000000	0.41420700000000	0.00000000000000	-0.09050600000000	0.00000000000000	29.15794400000000	0.00000000000000	0.00000000000000	7.03126600000000	0.00000000000000	
11.83162200000000	-57.01648500000000	816.99674200000004	64.79671100000000	0.14403200000000	0.00000000000000	0.11107300000000	-11.27012100000000	86.42444700000000	10.35534800000000	0.41676500000000	0.00000000000000	-0.09067500000000	0.00000000000000	29.09313100000000	0.00000000000000	0.00000000000000	7.34183000000000	0.00000000000000	
11.83329300000000	-57.74969900000000	814.90735400000005	64.59403900000000	0.14331500000000	0.00000000000000	0.11095400000000	-11.06909300000000	91.40437600000000	10.58913300000000	0.41914100000000	0.00000000000000	-0.09084200000000	0.00000000000000	29.02642500000000	0.00000000000000	0.00000000000000	7.61498000000000	0.00000000000000	
11.83496100000000	-58.49967400000000	812.66395199999999	64.36340199999999	0.14259900000000	0.00000000000000	0.11083100000000	-10.76611500000000	96.27000099999999	10.76600000000000	0.42135700000000	0.00000000000000	-0.09100700000000	0.00000000000000	28.95784900000000	0.00000000000000	0.00000000000000	7.85577000000000	0.00000000000000	
11.83662400000000	-59.26597200000000	810.26457300000004	64.10454300000001	0.14188600000000	0.00000000000000	0.11070500000000	-10.37774800000000	101.07445500000000	10.89519800000000	0.42342900000000	0.00000000000000	-0.09117100000000	0.00000000000000	28.88741500000000	0.00000000000000	0.00000000000000	8.06963800000000	0.00000000000000	
11.83829500000000	-60.04806000000000	807.70731999999998	63.81725500000000	0.14117500000000	0.00000000000000	0.11057400000000	-9.91952000000000	105.86991500000001	10.98555700000000	0.42537200000000	0.00000000000000	-0.09133400000000	0.00000000000000	28.81512700000000	0.00000000000000	0.00000000000000	8.26189800000000	0.00000000000000	
11.83995800000000	-60.84530500000000	804.99036899999999	63.50138400000000	0.14046600000000	0.00000000000000	0.11043900000000	-9.40504500000000	110.70397199999999	11.04490100000000	0.42719900000000	0.00000000000000	-0.09149600000000	0.00000000000000	28.74097700000000	0.00000000000000	0.00000000000000	8.43733700000000	0.00000000000000	
11.84163000000000	-61.65697400000000	802.11196700000005	63.15682800000000	0.13976000000000	0.00000000000000	0.11030000000000	-8.84544600000000	115.61695500000000	11.07962600000000	0.42892000000000	0.00000000000000	-0.09165800000000	0.00000000000000	28.66494500000000	0.00000000000000	0.00000000000000	8.59991200000000	0.00000000000000	
11.84328800000000	-62.48223500000000	799.07043199999998	62.78353900000000	0.13905700000000	0.00000000000000	0.11015700000000	-8.24905700000000	120.64026000000000	11.09446400000000	0.43054600000000	0.00000000000000	-0.09182000000000	0.00000000000000	28.58700000000000	0.00000000000000	0.00000000000000	8.75257100000000	0.00000000000000	
11.84496100000000	-63.32015500000000	795.86416099999997	62.38152500000000	0.13835700000000	0.00000000000000	0.11001000000000	-7.62139700000000	125.79561300000000	11.09241700000000	0.43208400000000	0.00000000000000	-0.09198200000000	0.00000000000000	28.50709700000000	0.00000000000000	0.00000000000000	8.89718200000000	0.00000000000000	
